# xmcd
#
# Track frame offsets: 
#        150
#        21672
#        37968
#        58585
#        78022
#        97984
#        115501
#        152640
#
# Disc length: 2409 seconds
#
# Revision: 0
# Processed by: cddbd v1.5.2PL0 Copyright (c) Steve Scherf et al.
# Submitted via: ExactAudioCopyFreeDBPlugin 1.0
#
DISCID=52096708
DTITLE=Sonata Arctica - Takatalvi
DYEAR=2003
DGENRE=Melodic Metal
TTITLE0=San Sebastian
TTITLE1=The Gun
TTITLE2=Still Loving You
TTITLE3=Shy
TTITLE4=Dream Thieves
TTITLE5=I Want Out
TTITLE6=Fade To Black
TTITLE7=Data Track
EXTD=
EXTT0=
EXTT1=
EXTT2=
EXTT3=
EXTT4=
EXTT5=
EXTT6=
EXTT7=
PLAYORDER=
